<?xml version="1.0" encoding="utf-8"?>
<svg id="master-artboard" viewBox="0 0 1400 980" version="1.1" xmlns="http://www.w3.org/2000/svg" x="0px" y="0px" style="enable-background:new 0 0 1400 980;" width="1400px" height="980px" xmlns:xlink="http://www.w3.org/1999/xlink"><defs><path id="y" d="m 425,25 c 110.4,0 200,89.6 200,200 0,110.4 -89.6,200 -200,200 -110.4,0 -200,89.6 -200,200 0,110.4 89.6,200 200,200 C 645.8,825 825,645.8 825,425 825,204.2 645.8,25 425,25 z m 0,537.5 c 34.5,0 62.5,28 62.5,62.5 0,34.5 -28,62.5 -62.5,62.5 -34.5,0 -62.5,-28 -62.5,-62.5 0,-34.5 28,-62.5 62.5,-62.5 z"/><path id="d" d="m 450,200 c 0,27.61424 -22.38576,50 -50,50 -27.61424,0 -50,-22.38576 -50,-50 0,-27.61424 22.38576,-50 50,-50 27.61424,0 50,22.38576 50,50 z"/><filter id="f">
   <feGaussianBlur stdDeviation="12.375"/>
  </filter><filter id="filter-1">
   <feGaussianBlur stdDeviation="12.375"/>
  </filter></defs><rect id="ee-background" x="0" y="0" width="1400" height="980" style="fill: white; fill-opacity: 1; pointer-events: none;"/>








































<g transform="matrix(-2.718906641006501, 1.015248722476958e-7, -1.015248722476958e-7, -2.718906641006501, 1007.2008712425799, 867.6835281714662)"><g transform="translate(17.2,-617.2)">
  <g transform="matrix(0.28267752,0,0,0.28267752,-12.337947,622.06205)">
   <path transform="translate(25,25)" d="M 800,400 C 800,620.9139 620.9139,800 400,800 179.0861,800 0,620.9139 0,400 0,179.0861 179.0861,0 400,0 620.9139,0 800,179.0861 800,400 z" style="opacity: 0.5; fill: rgb(127, 127, 127); stroke: rgb(127, 127, 127); stroke-width: 25; filter: url('#filter-1');"/>
   <g transform="matrix(-1,0,0,-1,850,850)">
    <g fill="#000" transform="matrix(-1,0,0,-1,825,825)">
     <use transform="translate(-25,-25)" xlink:href="#y"/>
     <use transform="matrix(1.25,0,0,1.25,-100,-50)" xlink:href="#d"/>
    </g>
    <g fill="#fff">
     <use xlink:href="#y"/>
     <use transform="matrix(1.25,0,0,-1.25,-75,475)" xlink:href="#d"/>
    </g>
   </g>
  </g>
 </g></g><path d="M 903.7711181640625 242.9530487060547 C 901.8711547851562 242.9530487060547 900.3711547851562 242.3763885498047 899.2711181640625 241.22305297851562 C 898.1777954101562 240.06971740722656 897.631103515625 238.4630584716797 897.631103515625 236.40304565429688 C 897.631103515625 234.3363800048828 898.14111328125 232.69305419921875 899.1611328125 231.47305297851562 C 900.18115234375 230.2530517578125 901.5477905273438 229.64305114746094 903.2611083984375 229.64305114746094 C 904.8744506835938 229.64305114746094 906.1477661132812 230.1730499267578 907.0811157226562 231.23304748535156 C 908.0211181640625 232.29306030273438 908.4911499023438 233.68971252441406 908.4911499023438 235.4230499267578 L 908.4911499023438 236.65304565429688 L 899.64111328125 236.65304565429688 C 899.68115234375 238.1597137451172 900.064453125 239.3030548095703 900.7911376953125 240.0830535888672 C 901.5111083984375 240.86972045898438 902.5277709960938 241.26304626464844 903.8411254882812 241.26304626464844 C 905.2211303710938 241.26304626464844 906.5877685546875 240.97305297851562 907.9411010742188 240.39305114746094 L 907.9411010742188 242.123046875 C 907.2544555664062 242.4230499267578 906.6044921875 242.63638305664062 905.9911499023438 242.76304626464844 C 905.3778076171875 242.8897247314453 904.6378173828125 242.9530487060547 903.7711181640625 242.9530487060547 M 903.2411499023438 231.27305603027344 C 902.2078247070312 231.27305603027344 901.3844604492188 231.60972595214844 900.7711181640625 232.28305053710938 C 900.1577758789062 232.95639038085938 899.7977905273438 233.88638305664062 899.6911010742188 235.07305908203125 L 906.4111328125 235.07305908203125 C 906.4111328125 233.8463897705078 906.1344604492188 232.90638732910156 905.5811157226562 232.2530517578125 C 905.0344848632812 231.59971618652344 904.2544555664062 231.27305603027344 903.2411499023438 231.27305603027344 ZM 923.5051879882812 242.72305297851562 L 921.2451782226562 242.72305297851562 L 916.6351928710938 235.1830596923828 L 911.9451904296875 242.72305297851562 L 909.835205078125 242.72305297851562 L 915.53515625 233.77305603027344 L 910.2251586914062 225.59304809570312 L 912.4251708984375 225.59304809570312 L 916.6851806640625 232.373046875 L 920.9751586914062 225.59304809570312 L 923.0951538085938 225.59304809570312 L 917.78515625 233.7030487060547 L 923.5051879882812 242.72305297851562 ZM 931.635986328125 242.9530487060547 C 930.8026733398438 242.9530487060547 930.0393676757812 242.79971313476562 929.3460083007812 242.49305725097656 C 928.6526489257812 242.18638610839844 928.0726928710938 241.7130584716797 927.6060180664062 241.07305908203125 L 927.4660034179688 241.07305908203125 C 927.559326171875 241.81971740722656 927.6060180664062 242.52972412109375 927.6060180664062 243.2030487060547 L 927.6060180664062 248.49305725097656 L 925.656005859375 248.49305725097656 L 925.656005859375 229.883056640625 L 927.2360229492188 229.883056640625 L 927.5059814453125 231.633056640625 L 927.6060180664062 231.633056640625 C 928.1060180664062 230.9330596923828 928.68603515625 230.4263916015625 929.3460083007812 230.11305236816406 C 930.0126953125 229.79971313476562 930.7760009765625 229.64305114746094 931.635986328125 229.64305114746094 C 933.3359985351562 229.64305114746094 934.6493530273438 230.22637939453125 935.5759887695312 231.39305114746094 C 936.502685546875 232.5530548095703 936.9660034179688 234.18638610839844 936.9660034179688 236.29306030273438 C 936.9660034179688 238.39971923828125 936.4960327148438 240.03639221191406 935.5560302734375 241.2030487060547 C 934.6160278320312 242.36972045898438 933.309326171875 242.9530487060547 931.635986328125 242.9530487060547 M 931.3560180664062 231.29306030273438 C 930.0426635742188 231.29306030273438 929.0926513671875 231.65638732910156 928.5059814453125 232.383056640625 C 927.9193115234375 233.10972595214844 927.6193237304688 234.26638793945312 927.6060180664062 235.85305786132812 L 927.6060180664062 236.29306030273438 C 927.6060180664062 238.09304809570312 927.906005859375 239.383056640625 928.5059814453125 240.16305541992188 C 929.1060180664062 240.94305419921875 930.0693359375 241.3330535888672 931.39599609375 241.3330535888672 C 932.5093383789062 241.3330535888672 933.3793334960938 240.883056640625 934.0059814453125 239.98304748535156 C 934.6393432617188 239.0830535888672 934.9559936523438 237.84304809570312 934.9559936523438 236.26304626464844 C 934.9559936523438 234.66305541992188 934.6393432617188 233.43638610839844 934.0059814453125 232.5830535888672 C 933.3793334960938 231.72305297851562 932.4960327148438 231.29306030273438 931.3560180664062 231.29306030273438 ZM 948.26220703125 242.72305297851562 L 947.8721923828125 240.89305114746094 L 947.7821655273438 240.89305114746094 C 947.1422119140625 241.69972229003906 946.502197265625 242.2463836669922 945.8621826171875 242.53305053710938 C 945.2288818359375 242.81304931640625 944.435546875 242.9530487060547 943.482177734375 242.9530487060547 C 942.2088623046875 242.9530487060547 941.212158203125 242.6263885498047 940.4921875 241.97305297851562 C 939.7655029296875 241.31971740722656 939.4021606445312 240.38638305664062 939.4021606445312 239.1730499267578 C 939.4021606445312 236.5797119140625 941.4755249023438 235.2197265625 945.6221923828125 235.09304809570312 L 947.8021850585938 235.02305603027344 L 947.8021850585938 234.22305297851562 C 947.8021850585938 233.2163848876953 947.5855102539062 232.47305297851562 947.1521606445312 231.99305725097656 C 946.7188720703125 231.51304626464844 946.0255126953125 231.27305603027344 945.0722045898438 231.27305603027344 C 944.0054931640625 231.27305603027344 942.7955322265625 231.60305786132812 941.4421997070312 232.26304626464844 L 940.8421630859375 230.77305603027344 C 941.4755249023438 230.4263916015625 942.1688232421875 230.15638732910156 942.9221801757812 229.9630584716797 C 943.675537109375 229.76971435546875 944.4321899414062 229.6730499267578 945.1921997070312 229.6730499267578 C 946.7255249023438 229.6730499267578 947.8588256835938 230.0097198486328 948.5921630859375 230.6830596923828 C 949.3322143554688 231.36305236816406 949.7022094726562 232.4530487060547 949.7022094726562 233.9530487060547 L 949.7022094726562 242.72305297851562 L 948.26220703125 242.72305297851562 M 943.8721923828125 241.35305786132812 C 945.078857421875 241.35305786132812 946.0288696289062 241.01971435546875 946.72216796875 240.35305786132812 C 947.41552734375 239.69305419921875 947.76220703125 238.76304626464844 947.76220703125 237.56304931640625 L 947.76220703125 236.40304565429688 L 945.8121948242188 236.49305725097656 C 944.2655029296875 236.54638671875 943.1521606445312 236.78639221191406 942.47216796875 237.2130584716797 C 941.7855224609375 237.633056640625 941.4421997070312 238.29306030273438 941.4421997070312 239.19305419921875 C 941.4421997070312 239.89971923828125 941.655517578125 240.43638610839844 942.0822143554688 240.8030548095703 C 942.5088500976562 241.1697235107422 943.1055297851562 241.35305786132812 943.8721923828125 241.35305786132812 ZM 962.4990844726562 242.72305297851562 L 962.4990844726562 234.41305541992188 C 962.4990844726562 233.36639404296875 962.262451171875 232.5863800048828 961.7891235351562 232.07305908203125 C 961.30908203125 231.5530548095703 960.5624389648438 231.29306030273438 959.5491333007812 231.29306030273438 C 958.2024536132812 231.29306030273438 957.2191162109375 231.65638732910156 956.59912109375 232.383056640625 C 955.972412109375 233.10972595214844 955.6591186523438 234.30972290039062 955.6591186523438 235.98304748535156 L 955.6591186523438 242.72305297851562 L 953.7091064453125 242.72305297851562 L 953.7091064453125 229.883056640625 L 955.2891235351562 229.883056640625 L 955.609130859375 231.633056640625 L 955.6990966796875 231.633056640625 C 956.09912109375 230.99972534179688 956.6591186523438 230.5097198486328 957.3790893554688 230.16305541992188 C 958.09912109375 229.81639099121094 958.8991088867188 229.64305114746094 959.7791137695312 229.64305114746094 C 961.3258056640625 229.64305114746094 962.492431640625 230.01638793945312 963.2791137695312 230.76304626464844 C 964.05908203125 231.5097198486328 964.4490966796875 232.7030487060547 964.4490966796875 234.34304809570312 L 964.4490966796875 242.72305297851562 L 962.4990844726562 242.72305297851562 ZM 977.1787109375 241.0030517578125 L 977.0787353515625 241.0030517578125 C 976.1787109375 242.3030548095703 974.8353881835938 242.9530487060547 973.0487060546875 242.9530487060547 C 971.3687133789062 242.9530487060547 970.0620727539062 242.3797149658203 969.1287231445312 241.23304748535156 C 968.1953735351562 240.0863800048828 967.7286987304688 238.4530487060547 967.7286987304688 236.3330535888672 C 967.7286987304688 234.2197265625 968.1953735351562 232.57638549804688 969.1287231445312 231.40304565429688 C 970.0687255859375 230.22972106933594 971.3753662109375 229.64305114746094 973.0487060546875 229.64305114746094 C 974.7886962890625 229.64305114746094 976.1253662109375 230.27638244628906 977.0587158203125 231.54306030273438 L 977.208740234375 231.54306030273438 L 977.1287231445312 230.61305236816406 L 977.0787353515625 229.7130584716797 L 977.0787353515625 224.49305725097656 L 979.0187377929688 224.49305725097656 L 979.0187377929688 242.72305297851562 L 977.438720703125 242.72305297851562 L 977.1787109375 241.0030517578125 M 973.2886962890625 241.3330535888672 C 974.6220703125 241.3330535888672 975.5853881835938 240.9697265625 976.1787109375 240.24305725097656 C 976.7787475585938 239.52305603027344 977.0787353515625 238.35638427734375 977.0787353515625 236.74305725097656 L 977.0787353515625 236.3330535888672 C 977.0787353515625 234.51304626464844 976.775390625 233.2163848876953 976.168701171875 232.44305419921875 C 975.5620727539062 231.66305541992188 974.5953979492188 231.27305603027344 973.2687377929688 231.27305603027344 C 972.1287231445312 231.27305603027344 971.25537109375 231.7163848876953 970.6487426757812 232.60305786132812 C 970.0420532226562 233.48971557617188 969.7387084960938 234.74305725097656 969.7387084960938 236.36305236816406 C 969.7387084960938 238.0030517578125 970.0420532226562 239.23971557617188 970.6487426757812 240.07305908203125 C 971.2487182617188 240.91305541992188 972.1287231445312 241.3330535888672 973.2886962890625 241.3330535888672 Z" transform="matrix(1.6485017538070679, 0, 0, 1.6485017538070679, -459.17340087890625, 105.106689453125)" style="fill: rgb(51, 51, 51); white-space: pre; color: rgb(51, 51, 51);"/><path d="M 903.7711181640625 242.9530487060547 C 901.8711547851562 242.9530487060547 900.3711547851562 242.3763885498047 899.2711181640625 241.22305297851562 C 898.1777954101562 240.06971740722656 897.631103515625 238.4630584716797 897.631103515625 236.40304565429688 C 897.631103515625 234.3363800048828 898.14111328125 232.69305419921875 899.1611328125 231.47305297851562 C 900.18115234375 230.2530517578125 901.5477905273438 229.64305114746094 903.2611083984375 229.64305114746094 C 904.8744506835938 229.64305114746094 906.1477661132812 230.1730499267578 907.0811157226562 231.23304748535156 C 908.0211181640625 232.29306030273438 908.4911499023438 233.68971252441406 908.4911499023438 235.4230499267578 L 908.4911499023438 236.65304565429688 L 899.64111328125 236.65304565429688 C 899.68115234375 238.1597137451172 900.064453125 239.3030548095703 900.7911376953125 240.0830535888672 C 901.5111083984375 240.86972045898438 902.5277709960938 241.26304626464844 903.8411254882812 241.26304626464844 C 905.2211303710938 241.26304626464844 906.5877685546875 240.97305297851562 907.9411010742188 240.39305114746094 L 907.9411010742188 242.123046875 C 907.2544555664062 242.4230499267578 906.6044921875 242.63638305664062 905.9911499023438 242.76304626464844 C 905.3778076171875 242.8897247314453 904.6378173828125 242.9530487060547 903.7711181640625 242.9530487060547 M 903.2411499023438 231.27305603027344 C 902.2078247070312 231.27305603027344 901.3844604492188 231.60972595214844 900.7711181640625 232.28305053710938 C 900.1577758789062 232.95639038085938 899.7977905273438 233.88638305664062 899.6911010742188 235.07305908203125 L 906.4111328125 235.07305908203125 C 906.4111328125 233.8463897705078 906.1344604492188 232.90638732910156 905.5811157226562 232.2530517578125 C 905.0344848632812 231.59971618652344 904.2544555664062 231.27305603027344 903.2411499023438 231.27305603027344 ZM 923.50537109375 242.72305297851562 L 921.245361328125 242.72305297851562 L 916.6353759765625 235.1830596923828 L 911.9453735351562 242.72305297851562 L 909.8353881835938 242.72305297851562 L 915.5353393554688 233.77305603027344 L 910.225341796875 225.59304809570312 L 912.4253540039062 225.59304809570312 L 916.6853637695312 232.373046875 L 920.975341796875 225.59304809570312 L 923.0953369140625 225.59304809570312 L 917.7853393554688 233.7030487060547 L 923.50537109375 242.72305297851562 ZM 931.6362915039062 242.9530487060547 C 930.802978515625 242.9530487060547 930.0396728515625 242.79971313476562 929.3463134765625 242.49305725097656 C 928.6529541015625 242.18638610839844 928.072998046875 241.7130584716797 927.6063232421875 241.07305908203125 L 927.46630859375 241.07305908203125 C 927.5596313476562 241.81971740722656 927.6063232421875 242.52972412109375 927.6063232421875 243.2030487060547 L 927.6063232421875 248.49305725097656 L 925.6563110351562 248.49305725097656 L 925.6563110351562 229.883056640625 L 927.236328125 229.883056640625 L 927.5062866210938 231.633056640625 L 927.6063232421875 231.633056640625 C 928.1063232421875 230.9330596923828 928.6863403320312 230.4263916015625 929.3463134765625 230.11305236816406 C 930.0130004882812 229.79971313476562 930.7763061523438 229.64305114746094 931.6362915039062 229.64305114746094 C 933.3363037109375 229.64305114746094 934.649658203125 230.22637939453125 935.5762939453125 231.39305114746094 C 936.5029907226562 232.5530548095703 936.96630859375 234.18638610839844 936.96630859375 236.29306030273438 C 936.96630859375 238.39971923828125 936.496337890625 240.03639221191406 935.5563354492188 241.2030487060547 C 934.6163330078125 242.36972045898438 933.3096313476562 242.9530487060547 931.6362915039062 242.9530487060547 M 931.3563232421875 231.29306030273438 C 930.04296875 231.29306030273438 929.0929565429688 231.65638732910156 928.5062866210938 232.383056640625 C 927.9196166992188 233.10972595214844 927.61962890625 234.26638793945312 927.6063232421875 235.85305786132812 L 927.6063232421875 236.29306030273438 C 927.6063232421875 238.09304809570312 927.9063110351562 239.383056640625 928.5062866210938 240.16305541992188 C 929.1063232421875 240.94305419921875 930.0696411132812 241.3330535888672 931.3963012695312 241.3330535888672 C 932.5096435546875 241.3330535888672 933.379638671875 240.883056640625 934.0062866210938 239.98304748535156 C 934.6396484375 239.0830535888672 934.956298828125 237.84304809570312 934.956298828125 236.26304626464844 C 934.956298828125 234.66305541992188 934.6396484375 233.43638610839844 934.0062866210938 232.5830535888672 C 933.379638671875 231.72305297851562 932.496337890625 231.29306030273438 931.3563232421875 231.29306030273438 ZM 942.3126831054688 242.72305297851562 L 940.3626708984375 242.72305297851562 L 940.3626708984375 224.49305725097656 L 942.3126831054688 224.49305725097656 L 942.3126831054688 242.72305297851562 ZM 957.522705078125 236.29306030273438 C 957.522705078125 238.38638305664062 956.9960327148438 240.01971435546875 955.9426879882812 241.19305419921875 C 954.8826904296875 242.3663787841797 953.426025390625 242.9530487060547 951.5726928710938 242.9530487060547 C 950.4193725585938 242.9530487060547 949.3993530273438 242.68638610839844 948.5126953125 242.15304565429688 C 947.6193237304688 241.61305236816406 946.9293212890625 240.8397216796875 946.4426879882812 239.8330535888672 C 945.9627075195312 238.81971740722656 945.72265625 237.6397247314453 945.72265625 236.29306030273438 C 945.72265625 234.19972229003906 946.2460327148438 232.56639099121094 947.2926635742188 231.39305114746094 C 948.33935546875 230.22637939453125 949.7926635742188 229.64305114746094 951.6527099609375 229.64305114746094 C 953.446044921875 229.64305114746094 954.8726806640625 230.23971557617188 955.9326782226562 231.4330596923828 C 956.99267578125 232.633056640625 957.522705078125 234.2530517578125 957.522705078125 236.29306030273438 M 947.732666015625 236.29306030273438 C 947.732666015625 237.9330596923828 948.0626831054688 239.1830596923828 948.72265625 240.04306030273438 C 949.3760375976562 240.90304565429688 950.33935546875 241.3330535888672 951.6126708984375 241.3330535888672 C 952.885986328125 241.3330535888672 953.8526611328125 240.90304565429688 954.5126953125 240.04306030273438 C 955.1726684570312 239.18971252441406 955.502685546875 237.93971252441406 955.502685546875 236.29306030273438 C 955.502685546875 234.6597137451172 955.1726684570312 233.4197235107422 954.5126953125 232.57305908203125 C 953.8526611328125 231.7197265625 952.8793334960938 231.29306030273438 951.5926513671875 231.29306030273438 C 950.3193359375 231.29306030273438 949.359375 231.7130584716797 948.7127075195312 232.5530548095703 C 948.059326171875 233.38638305664062 947.732666015625 234.633056640625 947.732666015625 236.29306030273438 ZM 966.7880859375 229.64305114746094 C 967.3614501953125 229.64305114746094 967.874755859375 229.68971252441406 968.328125 229.78305053710938 L 968.05810546875 231.59304809570312 C 967.5247802734375 231.47305297851562 967.0547485351562 231.41305541992188 966.6481323242188 231.41305541992188 C 965.6080932617188 231.41305541992188 964.721435546875 231.8363800048828 963.9880981445312 232.6830596923828 C 963.2481079101562 233.52305603027344 962.8781127929688 234.57305908203125 962.8781127929688 235.8330535888672 L 962.8781127929688 242.72305297851562 L 960.9281005859375 242.72305297851562 L 960.9281005859375 229.883056640625 L 962.5380859375 229.883056640625 L 962.7581176757812 232.26304626464844 L 962.8480834960938 232.26304626464844 C 963.328125 231.4230499267578 963.90478515625 230.77638244628906 964.578125 230.32305908203125 C 965.2447509765625 229.86972045898438 965.9814453125 229.64305114746094 966.7880859375 229.64305114746094 ZM 976.154541015625 242.9530487060547 C 974.2545776367188 242.9530487060547 972.7545776367188 242.3763885498047 971.654541015625 241.22305297851562 C 970.5612182617188 240.06971740722656 970.0145263671875 238.4630584716797 970.0145263671875 236.40304565429688 C 970.0145263671875 234.3363800048828 970.5245361328125 232.69305419921875 971.5445556640625 231.47305297851562 C 972.5645751953125 230.2530517578125 973.9312133789062 229.64305114746094 975.64453125 229.64305114746094 C 977.2578735351562 229.64305114746094 978.5311889648438 230.1730499267578 979.4645385742188 231.23304748535156 C 980.404541015625 232.29306030273438 980.8745727539062 233.68971252441406 980.8745727539062 235.4230499267578 L 980.8745727539062 236.65304565429688 L 972.0245361328125 236.65304565429688 C 972.0645751953125 238.1597137451172 972.4478759765625 239.3030548095703 973.174560546875 240.0830535888672 C 973.89453125 240.86972045898438 974.9111938476562 241.26304626464844 976.2245483398438 241.26304626464844 C 977.6045532226562 241.26304626464844 978.97119140625 240.97305297851562 980.3245239257812 240.39305114746094 L 980.3245239257812 242.123046875 C 979.6378784179688 242.4230499267578 978.9879150390625 242.63638305664062 978.3745727539062 242.76304626464844 C 977.76123046875 242.8897247314453 977.021240234375 242.9530487060547 976.154541015625 242.9530487060547 M 975.6245727539062 231.27305603027344 C 974.5912475585938 231.27305603027344 973.7678833007812 231.60972595214844 973.154541015625 232.28305053710938 C 972.5411987304688 232.95639038085938 972.1812133789062 233.88638305664062 972.0745239257812 235.07305908203125 L 978.7945556640625 235.07305908203125 C 978.7945556640625 233.8463897705078 978.5178833007812 232.90638732910156 977.9645385742188 232.2530517578125 C 977.4179077148438 231.59971618652344 976.6378784179688 231.27305603027344 975.6245727539062 231.27305603027344 Z" transform="matrix(1.6485018730163574, 0, 0, 1.6485018730163574, -630.5049438476562, -169.1507110595703)" style="fill: rgb(51, 51, 51); white-space: pre; color: rgb(51, 51, 51);"/><path d="M 903.7711181640625 242.9530487060547 C 901.8711547851562 242.9530487060547 900.3711547851562 242.3763885498047 899.2711181640625 241.22305297851562 C 898.1777954101562 240.06971740722656 897.631103515625 238.4630584716797 897.631103515625 236.40304565429688 C 897.631103515625 234.3363800048828 898.14111328125 232.69305419921875 899.1611328125 231.47305297851562 C 900.18115234375 230.2530517578125 901.5477905273438 229.64305114746094 903.2611083984375 229.64305114746094 C 904.8744506835938 229.64305114746094 906.1477661132812 230.1730499267578 907.0811157226562 231.23304748535156 C 908.0211181640625 232.29306030273438 908.4911499023438 233.68971252441406 908.4911499023438 235.4230499267578 L 908.4911499023438 236.65304565429688 L 899.64111328125 236.65304565429688 C 899.68115234375 238.1597137451172 900.064453125 239.3030548095703 900.7911376953125 240.0830535888672 C 901.5111083984375 240.86972045898438 902.5277709960938 241.26304626464844 903.8411254882812 241.26304626464844 C 905.2211303710938 241.26304626464844 906.5877685546875 240.97305297851562 907.9411010742188 240.39305114746094 L 907.9411010742188 242.123046875 C 907.2544555664062 242.4230499267578 906.6044921875 242.63638305664062 905.9911499023438 242.76304626464844 C 905.3778076171875 242.8897247314453 904.6378173828125 242.9530487060547 903.7711181640625 242.9530487060547 M 903.2411499023438 231.27305603027344 C 902.2078247070312 231.27305603027344 901.3844604492188 231.60972595214844 900.7711181640625 232.28305053710938 C 900.1577758789062 232.95639038085938 899.7977905273438 233.88638305664062 899.6911010742188 235.07305908203125 L 906.4111328125 235.07305908203125 C 906.4111328125 233.8463897705078 906.1344604492188 232.90638732910156 905.5811157226562 232.2530517578125 C 905.0344848632812 231.59971618652344 904.2544555664062 231.27305603027344 903.2411499023438 231.27305603027344 ZM 923.50537109375 242.72305297851562 L 921.245361328125 242.72305297851562 L 916.6353759765625 235.1830596923828 L 911.9453735351562 242.72305297851562 L 909.8353881835938 242.72305297851562 L 915.5353393554688 233.77305603027344 L 910.225341796875 225.59304809570312 L 912.4253540039062 225.59304809570312 L 916.6853637695312 232.373046875 L 920.975341796875 225.59304809570312 L 923.0953369140625 225.59304809570312 L 917.7853393554688 233.7030487060547 L 923.50537109375 242.72305297851562 ZM 929.8063354492188 241.35305786132812 C 930.1529541015625 241.35305786132812 930.486328125 241.32638549804688 930.8063354492188 241.27305603027344 C 931.1263427734375 241.22637939453125 931.379638671875 241.1730499267578 931.5662841796875 241.11305236816406 L 931.5662841796875 242.60305786132812 C 931.3529663085938 242.709716796875 931.04296875 242.79306030273438 930.6362915039062 242.85305786132812 C 930.2229614257812 242.9197235107422 929.8529663085938 242.9530487060547 929.5263061523438 242.9530487060547 C 927.0396728515625 242.9530487060547 925.7963256835938 241.64639282226562 925.7963256835938 239.03305053710938 L 925.7963256835938 231.39305114746094 L 923.956298828125 231.39305114746094 L 923.956298828125 230.4530487060547 L 925.7963256835938 229.64305114746094 L 926.6163330078125 226.90304565429688 L 927.746337890625 226.90304565429688 L 927.746337890625 229.883056640625 L 931.476318359375 229.883056640625 L 931.476318359375 231.39305114746094 L 927.746337890625 231.39305114746094 L 927.746337890625 238.9530487060547 C 927.746337890625 239.72637939453125 927.9296264648438 240.31971740722656 928.2963256835938 240.73304748535156 C 928.6629638671875 241.14639282226562 929.1663208007812 241.35305786132812 929.8063354492188 241.35305786132812 ZM 939.988525390625 229.64305114746094 C 940.5618896484375 229.64305114746094 941.0751953125 229.68971252441406 941.528564453125 229.78305053710938 L 941.258544921875 231.59304809570312 C 940.7252197265625 231.47305297851562 940.2551879882812 231.41305541992188 939.8485717773438 231.41305541992188 C 938.8085327148438 231.41305541992188 937.921875 231.8363800048828 937.1885375976562 232.6830596923828 C 936.4485473632812 233.52305603027344 936.0785522460938 234.57305908203125 936.0785522460938 235.8330535888672 L 936.0785522460938 242.72305297851562 L 934.1285400390625 242.72305297851562 L 934.1285400390625 229.883056640625 L 935.738525390625 229.883056640625 L 935.9585571289062 232.26304626464844 L 936.0485229492188 232.26304626464844 C 936.528564453125 231.4230499267578 937.105224609375 230.77638244628906 937.778564453125 230.32305908203125 C 938.4451904296875 229.86972045898438 939.181884765625 229.64305114746094 939.988525390625 229.64305114746094 ZM 951.8250122070312 242.72305297851562 L 951.4349975585938 240.89305114746094 L 951.344970703125 240.89305114746094 C 950.7050170898438 241.69972229003906 950.0650024414062 242.2463836669922 949.4249877929688 242.53305053710938 C 948.7916870117188 242.81304931640625 947.9983520507812 242.9530487060547 947.0449829101562 242.9530487060547 C 945.7716674804688 242.9530487060547 944.7749633789062 242.6263885498047 944.0549926757812 241.97305297851562 C 943.3283081054688 241.31971740722656 942.9649658203125 240.38638305664062 942.9649658203125 239.1730499267578 C 942.9649658203125 236.5797119140625 945.038330078125 235.2197265625 949.1849975585938 235.09304809570312 L 951.364990234375 235.02305603027344 L 951.364990234375 234.22305297851562 C 951.364990234375 233.2163848876953 951.1483154296875 232.47305297851562 950.7149658203125 231.99305725097656 C 950.2816772460938 231.51304626464844 949.5883178710938 231.27305603027344 948.635009765625 231.27305603027344 C 947.5682983398438 231.27305603027344 946.3583374023438 231.60305786132812 945.0050048828125 232.26304626464844 L 944.4049682617188 230.77305603027344 C 945.038330078125 230.4263916015625 945.7316284179688 230.15638732910156 946.4849853515625 229.9630584716797 C 947.2383422851562 229.76971435546875 947.9949951171875 229.6730499267578 948.7550048828125 229.6730499267578 C 950.288330078125 229.6730499267578 951.421630859375 230.0097198486328 952.1549682617188 230.6830596923828 C 952.89501953125 231.36305236816406 953.2650146484375 232.4530487060547 953.2650146484375 233.9530487060547 L 953.2650146484375 242.72305297851562 L 951.8250122070312 242.72305297851562 M 947.4349975585938 241.35305786132812 C 948.6416625976562 241.35305786132812 949.5916748046875 241.01971435546875 950.2849731445312 240.35305786132812 C 950.9783325195312 239.69305419921875 951.3250122070312 238.76304626464844 951.3250122070312 237.56304931640625 L 951.3250122070312 236.40304565429688 L 949.375 236.49305725097656 C 947.8283081054688 236.54638671875 946.7149658203125 236.78639221191406 946.0349731445312 237.2130584716797 C 945.3483276367188 237.633056640625 945.0050048828125 238.29306030273438 945.0050048828125 239.19305419921875 C 945.0050048828125 239.89971923828125 945.2183227539062 240.43638610839844 945.64501953125 240.8030548095703 C 946.0716552734375 241.1697235107422 946.6683349609375 241.35305786132812 947.4349975585938 241.35305786132812 ZM 962.4120483398438 242.9530487060547 C 960.5520629882812 242.9530487060547 959.112060546875 242.383056640625 958.092041015625 241.24305725097656 C 957.072021484375 240.0963897705078 956.56201171875 238.47637939453125 956.56201171875 236.383056640625 C 956.56201171875 234.23638916015625 957.0786743164062 232.57638549804688 958.112060546875 231.40304565429688 C 959.1453857421875 230.22972106933594 960.6187133789062 229.64305114746094 962.5320434570312 229.64305114746094 C 963.1520385742188 229.64305114746094 963.7720336914062 229.709716796875 964.3920288085938 229.84304809570312 C 965.00537109375 229.97637939453125 965.4887084960938 230.133056640625 965.842041015625 230.31304931640625 L 965.2420654296875 231.9630584716797 C 964.8153686523438 231.7897186279297 964.3486938476562 231.64639282226562 963.842041015625 231.53305053710938 C 963.3286743164062 231.4197235107422 962.8787231445312 231.36305236816406 962.4920654296875 231.36305236816406 C 959.8787231445312 231.36305236816406 958.572021484375 233.02972412109375 958.572021484375 236.36305236816406 C 958.572021484375 237.93638610839844 958.8920288085938 239.14639282226562 959.5320434570312 239.99305725097656 C 960.1653442382812 240.8397216796875 961.1087036132812 241.26304626464844 962.362060546875 241.26304626464844 C 963.4287109375 241.26304626464844 964.525390625 241.02972412109375 965.6520385742188 240.56304931640625 L 965.6520385742188 242.29306030273438 C 964.7920532226562 242.73304748535156 963.7120361328125 242.9530487060547 962.4120483398438 242.9530487060547 ZM 972.8473510742188 241.35305786132812 C 973.1939697265625 241.35305786132812 973.52734375 241.32638549804688 973.8473510742188 241.27305603027344 C 974.1673583984375 241.22637939453125 974.420654296875 241.1730499267578 974.6072998046875 241.11305236816406 L 974.6072998046875 242.60305786132812 C 974.3939819335938 242.709716796875 974.083984375 242.79306030273438 973.6773071289062 242.85305786132812 C 973.2639770507812 242.9197235107422 972.8939819335938 242.9530487060547 972.5673217773438 242.9530487060547 C 970.0806884765625 242.9530487060547 968.8373413085938 241.64639282226562 968.8373413085938 239.03305053710938 L 968.8373413085938 231.39305114746094 L 966.997314453125 231.39305114746094 L 966.997314453125 230.4530487060547 L 968.8373413085938 229.64305114746094 L 969.6573486328125 226.90304565429688 L 970.787353515625 226.90304565429688 L 970.787353515625 229.883056640625 L 974.517333984375 229.883056640625 L 974.517333984375 231.39305114746094 L 970.787353515625 231.39305114746094 L 970.787353515625 238.9530487060547 C 970.787353515625 239.72637939453125 970.9706420898438 240.31971740722656 971.3373413085938 240.73304748535156 C 971.7039794921875 241.14639282226562 972.2073364257812 241.35305786132812 972.8473510742188 241.35305786132812 Z" transform="matrix(1.6485018730163574, 0, 0, 1.6485018730163574, -582.3700561523438, 411.9056091308594)" style="fill: rgb(51, 51, 51); white-space: pre; color: rgb(51, 51, 51);"/></svg>